<svg width="40" height="40" viewBox="0 0 40 40" fill="none" xmlns="http://www.w3.org/2000/svg">
<rect x="40" y="40" width="40" height="40" rx="20" transform="rotate(-180 40 40)" fill="#949EFF"/>
<path d="M20.6904 25.1071L16.4047 20.1071C16.2619 19.9405 16.1904 19.7738 16.1904 19.5238C16.1904 19.2738 16.2619 19.1071 16.4047 18.9405L20.6904 13.9405C20.9762 13.6071 21.4047 13.6071 21.6904 13.9405C21.9762 14.2738 21.9762 14.7738 21.6904 15.1071L17.9047 19.5238L21.6904 23.9405C21.9762 24.2738 21.9762 24.7738 21.6904 25.1071C21.4047 25.4405 20.9762 25.4405 20.6904 25.1071Z" fill="black"/>
<mask id="mask0_1_238" style="mask-type:luminance" maskUnits="userSpaceOnUse" x="16" y="13" width="6" height="13">
<path d="M20.6904 25.1071L16.4047 20.1071C16.2619 19.9405 16.1904 19.7738 16.1904 19.5238C16.1904 19.2738 16.2619 19.1071 16.4047 18.9405L20.6904 13.9405C20.9762 13.6071 21.4047 13.6071 21.6904 13.9405C21.9762 14.2738 21.9762 14.7738 21.6904 15.1071L17.9047 19.5238L21.6904 23.9405C21.9762 24.2738 21.9762 24.7738 21.6904 25.1071C21.4047 25.4405 20.9762 25.4405 20.6904 25.1071Z" fill="white"/>
</mask>
<g mask="url(#mask0_1_238)">
<rect x="27.619" y="9.5238" width="20" height="17.1429" transform="rotate(90 27.619 9.5238)" fill="white"/>
</g>
</svg>
