<svg width="21" height="21" viewBox="0 0 21 21" fill="none" xmlns="http://www.w3.org/2000/svg">
<path d="M6.99999 9.5C6.80221 9.5 6.60887 9.55865 6.44442 9.66853C6.27997 9.77841 6.1518 9.93459 6.07611 10.1173C6.00042 10.3 5.98062 10.5011 6.0192 10.6951C6.05779 10.8891 6.15303 11.0673 6.29288 11.2071C6.43273 11.347 6.61092 11.4422 6.8049 11.4808C6.99888 11.5194 7.19995 11.4996 7.38267 11.4239C7.5654 11.3482 7.72158 11.22 7.83146 11.0556C7.94134 10.8911 7.99999 10.6978 7.99999 10.5C7.99999 10.2348 7.89463 9.98043 7.70709 9.79289C7.51956 9.60536 7.2652 9.5 6.99999 9.5ZM11 9.5C10.8022 9.5 10.6089 9.55865 10.4444 9.66853C10.28 9.77841 10.1518 9.93459 10.0761 10.1173C10.0004 10.3 9.98062 10.5011 10.0192 10.6951C10.0578 10.8891 10.153 11.0673 10.2929 11.2071C10.4327 11.347 10.6109 11.4422 10.8049 11.4808C10.9989 11.5194 11.1999 11.4996 11.3827 11.4239C11.5654 11.3482 11.7216 11.22 11.8315 11.0556C11.9413 10.8911 12 10.6978 12 10.5C12 10.2348 11.8946 9.98043 11.7071 9.79289C11.5196 9.60536 11.2652 9.5 11 9.5ZM15 9.5C14.8022 9.5 14.6089 9.55865 14.4444 9.66853C14.28 9.77841 14.1518 9.93459 14.0761 10.1173C14.0004 10.3 13.9806 10.5011 14.0192 10.6951C14.0578 10.8891 14.153 11.0673 14.2929 11.2071C14.4327 11.347 14.6109 11.4422 14.8049 11.4808C14.9989 11.5194 15.1999 11.4996 15.3827 11.4239C15.5654 11.3482 15.7216 11.22 15.8315 11.0556C15.9413 10.8911 16 10.6978 16 10.5C16 10.2348 15.8946 9.98043 15.7071 9.79289C15.5196 9.60536 15.2652 9.5 15 9.5ZM11 0.5C9.68677 0.5 8.38641 0.758658 7.17315 1.2612C5.9599 1.76375 4.85751 2.50035 3.92892 3.42893C2.05356 5.3043 0.999988 7.84784 0.999988 10.5C0.991246 12.8091 1.79078 15.0485 3.25999 16.83L1.25999 18.83C1.12123 18.9706 1.02723 19.1492 0.98986 19.3432C0.952486 19.5372 0.973409 19.7379 1.04999 19.92C1.13305 20.0999 1.26769 20.2511 1.43683 20.3544C1.60598 20.4577 1.80199 20.5083 1.99999 20.5H11C13.6522 20.5 16.1957 19.4464 18.0711 17.5711C19.9464 15.6957 21 13.1522 21 10.5C21 7.84784 19.9464 5.3043 18.0711 3.42893C16.1957 1.55357 13.6522 0.5 11 0.5ZM11 18.5H4.40999L5.33999 17.57C5.52624 17.3826 5.63078 17.1292 5.63078 16.865C5.63078 16.6008 5.52624 16.3474 5.33999 16.16C4.03057 14.852 3.21516 13.1305 3.03268 11.2888C2.8502 9.44705 3.31193 7.59901 4.33922 6.05952C5.3665 4.52004 6.89578 3.38436 8.6665 2.84597C10.4372 2.30759 12.3398 2.3998 14.0502 3.10691C15.7606 3.81402 17.1728 5.09227 18.0464 6.72389C18.92 8.35551 19.2009 10.2395 18.8411 12.055C18.4814 13.8705 17.5033 15.505 16.0735 16.6802C14.6438 17.8554 12.8508 18.4985 11 18.5Z" fill="#303030"/>
</svg>
